<svg version="1.1" id="Layer_1" xmlns="http://www.w3.org/2000/svg" xmlns:xlink="http://www.w3.org/1999/xlink" x="0px" y="0px"
	 width="100%" viewBox="0 0 144 144" enable-background="new 0 0 144 144" xml:space="preserve">
<path fill="#FF0000" opacity="1.000000" stroke="none" 
	d="
M145.000000,51.000000 
	C145.000000,66.020897 145.000000,81.041786 144.608124,96.327133 
	C143.810410,98.097778 143.148163,99.585876 143.040390,101.113121 
	C142.348938,110.911552 135.836761,119.714264 127.591919,120.882637 
	C119.963425,121.963661 112.231422,122.909180 104.547119,122.893257 
	C78.480690,122.839226 52.410316,122.529533 26.352234,121.882950 
	C18.209764,121.680908 10.155354,119.506310 6.123471,111.368919 
	C4.244203,107.576057 4.073516,102.955597 2.951239,98.757622 
	C2.595340,97.426346 1.666598,96.248215 1.000000,95.000000 
	C1.000000,81.312439 1.000000,67.624878 1.404109,53.658703 
	C2.205713,51.370846 2.765922,49.378281 2.973923,47.349609 
	C4.195941,35.431034 9.408969,27.760124 21.576714,26.210823 
	C33.490913,24.693806 45.592117,24.215431 57.618252,24.114206 
	C73.364906,23.981665 89.119949,24.609974 104.868256,25.028563 
	C110.966698,25.190659 117.071152,25.517612 123.143745,26.082561 
	C125.850838,26.334410 128.615280,27.048014 131.130188,28.090971 
	C139.604019,31.605164 142.205521,38.879372 143.073914,47.262688 
	C143.208405,48.561035 144.333176,49.756798 145.000000,51.000000 
M59.455063,79.493134 
	C59.455063,84.574486 59.455063,89.655838 59.455063,95.701607 
	C71.714714,88.130249 83.104187,81.096291 94.965202,73.771118 
	C82.830284,66.321983 71.509911,59.372868 59.455109,51.972912 
	C59.455109,61.581932 59.455109,70.038887 59.455063,79.493134 
z"/>
<path fill="#FFF5F5" opacity="1.000000" stroke="none" 
	d="
M59.455086,78.994484 
	C59.455109,70.038887 59.455109,61.581932 59.455109,51.972912 
	C71.509911,59.372868 82.830284,66.321983 94.965202,73.771118 
	C83.104187,81.096291 71.714714,88.130249 59.455063,95.701607 
	C59.455063,89.655838 59.455063,84.574486 59.455086,78.994484 
z"/>
</svg>